<svg viewBox="0 0 120 120" xmlns="http://www.w3.org/2000/svg" role="img" aria-label="講師頭像">
  <defs><clipPath id="c2"><circle cx="60" cy="60" r="60"/></clipPath></defs>
  <g clip-path="url(#c2)">
    <rect width="120" height="120" fill="#6B9E3E"/>
    <circle cx="60" cy="126" r="50" fill="#F5F7EF"/>
    <path d="M30 52 C30 30 44 20 60 20 C76 20 90 30 90 54 L90 84 C90 84 80 70 78 58 C70 66 50 66 42 58 C40 70 30 84 30 84 Z" fill="#2E4A1F"/>
    <circle cx="60" cy="50" r="23" fill="#F0D9B8"/>
    <path d="M37 48 C37 30 50 24 60 24 C70 24 83 30 83 48 C83 40 72 38 60 38 C48 38 37 40 37 48 Z" fill="#2E4A1F"/>
    <circle cx="52" cy="50" r="3.2" fill="#2E4A1F"/>
    <circle cx="68" cy="50" r="3.2" fill="#2E4A1F"/>
    <path d="M53 60 q7 5 14 0" stroke="#9C6B3F" stroke-width="2.4" fill="none" stroke-linecap="round"/>
    <circle cx="36" cy="62" r="4" fill="#9C6B3F"/>
    <circle cx="84" cy="62" r="4" fill="#9C6B3F"/>
    <circle cx="24" cy="30" r="3" fill="#C9DCA6"/>
    <circle cx="96" cy="88" r="3" fill="#C9DCA6"/>
    <circle cx="100" cy="34" r="2.4" fill="#2E4A1F"/>
  </g>
</svg>
