<svg viewBox="0 0 120 120" xmlns="http://www.w3.org/2000/svg" role="img" aria-label="講師頭像">
  <defs><clipPath id="c6"><circle cx="60" cy="60" r="60"/></clipPath></defs>
  <g clip-path="url(#c6)">
    <rect width="120" height="120" fill="#6B9E3E"/>
    <circle cx="60" cy="126" r="50" fill="#C9DCA6"/>
    <path d="M34 74 C34 58 46 48 60 48 C74 48 86 58 86 74 L86 96 L34 96 Z" fill="#9C6B3F"/>
    <circle cx="60" cy="48" r="23" fill="#F0D9B8"/>
    <path d="M38 46 C38 28 52 24 60 24 C68 24 82 28 82 46 C82 38 72 36 60 36 C48 36 38 38 38 46 Z" fill="#2E4A1F"/>
    <path d="M60 24 C60 16 56 12 52 10 C56 14 56 18 60 22 C64 18 64 14 68 10 C64 12 60 16 60 24 Z" fill="#6B9E3E"/>
    <circle cx="52" cy="49" r="3.2" fill="#2E4A1F"/>
    <circle cx="68" cy="49" r="3.2" fill="#2E4A1F"/>
    <circle cx="47" cy="55" r="3" fill="#E4A0A0" opacity="0.55"/>
    <circle cx="73" cy="55" r="3" fill="#E4A0A0" opacity="0.55"/>
    <path d="M51 58 q9 8 18 0" stroke="#2E4A1F" stroke-width="2.8" fill="none" stroke-linecap="round"/>
  </g>
</svg>
