<svg viewBox="0 0 120 120" xmlns="http://www.w3.org/2000/svg" role="img" aria-label="講師頭像">
  <defs><clipPath id="c7"><circle cx="60" cy="60" r="60"/></clipPath></defs>
  <g clip-path="url(#c7)">
    <rect width="120" height="120" fill="#2E4A1F"/>
    <g stroke="#6B9E3E" stroke-width="1.6" opacity="0.6">
      <line x1="20" y1="24" x2="40" y2="44"/><line x1="100" y1="24" x2="80" y2="44"/>
      <line x1="16" y1="90" x2="34" y2="78"/><line x1="104" y1="90" x2="86" y2="78"/>
    </g>
    <g fill="#6B9E3E" opacity="0.7">
      <circle cx="20" cy="24" r="3"/><circle cx="100" cy="24" r="3"/>
      <circle cx="16" cy="90" r="3"/><circle cx="104" cy="90" r="3"/>
    </g>
    <circle cx="60" cy="124" r="48" fill="#C9DCA6"/>
    <path d="M36 74 C36 58 47 49 60 49 C73 49 84 58 84 74 L84 94 L36 94 Z" fill="#9C6B3F"/>
    <circle cx="60" cy="48" r="23" fill="#F5F7EF"/>
    <path d="M37 44 C37 26 50 22 60 22 C70 22 83 26 83 44 C83 36 73 34 60 34 C47 34 37 36 37 44 Z" fill="#2E4A1F"/>
    <circle cx="52" cy="49" r="3.2" fill="#2E4A1F"/>
    <circle cx="68" cy="49" r="3.2" fill="#2E4A1F"/>
    <path d="M54 59 h12" stroke="#9C6B3F" stroke-width="2.6" fill="none" stroke-linecap="round"/>
    <path d="M40 42 l8 -2 M80 42 l-8 -2" stroke="#2E4A1F" stroke-width="2.4" stroke-linecap="round"/>
  </g>
</svg>
