<svg viewBox="0 0 120 120" xmlns="http://www.w3.org/2000/svg" role="img" aria-label="Stan Shih 幾何頭像">
  <circle cx="60" cy="60" r="60" fill="#2E4A1F"/>
  <path d="M60 22 C44 22 34 38 34 58 C34 80 46 98 60 98 C74 98 86 80 86 58 C86 38 76 22 60 22 Z" fill="#6B9E3E"/>
  <path d="M60 34 C50 34 44 46 44 60 C44 76 51 90 60 90 C69 90 76 76 76 60 C76 46 70 34 60 34 Z" fill="#C9DCA6"/>
  <circle cx="60" cy="62" r="12" fill="#9C6B3F"/>
  <rect x="42" y="50" width="16" height="12" rx="4" fill="#F8F6EC" stroke="#2E4A1F" stroke-width="2.4"/>
  <rect x="62" y="50" width="16" height="12" rx="4" fill="#F8F6EC" stroke="#2E4A1F" stroke-width="2.4"/>
  <line x1="58" y1="55" x2="62" y2="55" stroke="#2E4A1F" stroke-width="2.4"/>
  <circle cx="50" cy="56" r="2.6" fill="#22301A"/>
  <circle cx="70" cy="56" r="2.6" fill="#22301A"/>
</svg>
