<svg viewBox="0 0 120 120" xmlns="http://www.w3.org/2000/svg" role="img" aria-label="Stan Shih 頭像">
  <defs><clipPath id="c9"><circle cx="60" cy="60" r="60"/></clipPath></defs>
  <g clip-path="url(#c9)">
    <rect width="120" height="120" fill="#1E3016"/>
    <path d="M60 20 C42 20 32 38 32 60 C32 84 44 100 60 100 C76 100 88 84 88 60 C88 38 78 20 60 20 Z" fill="#6B9E3E"/>
    <path d="M60 32 C48 32 42 46 42 62 C42 80 50 92 60 92 C70 92 78 80 78 62 C78 46 72 32 60 32 Z" fill="#C9DCA6"/>
    <circle cx="60" cy="66" r="13" fill="#9C6B3F"/>
    <circle cx="60" cy="66" r="5" fill="#7A5230"/>
    <rect x="40" y="50" width="18" height="13" rx="4" fill="#F5F7EF" stroke="#2E4A1F" stroke-width="2.6"/>
    <rect x="62" y="50" width="18" height="13" rx="4" fill="#F5F7EF" stroke="#2E4A1F" stroke-width="2.6"/>
    <line x1="58" y1="55" x2="62" y2="55" stroke="#2E4A1F" stroke-width="2.6"/>
    <circle cx="49" cy="56" r="2.8" fill="#22301A"/>
    <circle cx="71" cy="56" r="2.8" fill="#22301A"/>
    <circle cx="60" cy="24" r="4" fill="#2E4A1F"/>
  </g>
</svg>
